<svg xmlns="http://www.w3.org/2000/svg" xmlns:xlink="http://www.w3.org/1999/xlink" width="520" zoomAndPan="magnify" viewBox="0 0 390 98.249997" height="131" preserveAspectRatio="xMidYMid meet" version="1.0"><defs><g/></defs><g fill="#000000" fill-opacity="1"><g transform="translate(15.769496, 71.478441)"><g><path d="M 74.90625 0 L 64 0 L 37.59375 -41.234375 L 10.765625 0 L 0 0 L 34.03125 -51.1875 L 41.09375 -51.1875 Z M 74.90625 0 "/></g></g></g><g fill="#000000" fill-opacity="1"><g transform="translate(86.535563, 71.478441)"><g><path d="M 82.6875 0 L 73.734375 0 L 73.734375 -35.84375 L 47.703125 0 L 39.78125 0 L 13.671875 -35.78125 L 13.671875 0 L 4.734375 0 L 4.734375 -51.1875 L 13.75 -51.1875 L 44.140625 -9.375 L 74.390625 -51.1875 L 82.6875 -51.1875 Z M 82.6875 0 "/></g></g></g><g fill="#000000" fill-opacity="1"><g transform="translate(171.830474, 71.478441)"><g><path d="M 74.90625 0 L 64 0 L 37.59375 -41.234375 L 10.765625 0 L 0 0 L 34.03125 -51.1875 L 41.09375 -51.1875 Z M 74.90625 0 "/></g></g></g><g fill="#000000" fill-opacity="1"><g transform="translate(235.321377, 71.478441)"><g><path d="M 41.09375 0 L 34.03125 0 L 0 -51.1875 L 10.984375 -51.1875 L 37.734375 -9.96875 L 64.203125 -51.1875 L 74.90625 -51.1875 Z M 41.09375 0 "/></g></g></g><g fill="#000000" fill-opacity="1"><g transform="translate(299.307019, 71.478441)"><g><path d="M 74.90625 0 L 64 0 L 37.59375 -41.234375 L 10.765625 0 L 0 0 L 34.03125 -51.1875 L 41.09375 -51.1875 Z M 74.90625 0 "/></g></g></g></svg>